<?xml version="1.0" encoding="UTF-8"?>
<svg id="Layer_1" data-name="Layer 1" xmlns="http://www.w3.org/2000/svg" viewBox="0 0 554.36 793.92" width="24" height="34">
  <path d="M237.82,753.98l-5.84-5.75c4.91-4.88,4.87-8.97,1.52-13.66-3.79-5.32-6.15-11.35-8.71-17.29l-4.52-10.46c-6.41-2.8-13.89-7.66-13.85-12.44,0-.91,2.16-1.86,3.11-1.96l11.32-1.22-7.94-8.18c-4.48-4.62-1.67-8.79-3.14-9.11l-2.89-.64c-1.43-.32-4-.87-4.8-1.81-2.39-2.76,3.74-7.5-5.95-16.7,6.59-9.44-6.72-11.26-3.6-22.85,2.39-8.86-7.05-7.48-11.03-17.02-1.3-3.13-.06-5.75,3.73-6.94-.54-1.22-2.08-3.73-3.2-4.67-3.85-3.21-8.72,6.84-17.88,9.77l-5.73,4.8-8.05-1.19-.08,9.06-10.16,3.21c-3.35,1.06-6.26.6-9.71-1.06.88,1.63,2.52,6.12,1.23,7.23-2.37,1.68-7.4,2.53-10.16,2.82l.28,6.64c.06,1.52-2.96,4.29-4.53,4.28-4.58-.04-8.38-3.38-11.2-6.67-.64.37-1.89,1.08-1.75.99l4.67,6.99c.97,1.45.49,5.23-.47,6.42-1.1,1.35-5.13,2.08-6.72,1.13l-7.04-4.19c.33,3.32.55,6.14-.51,7.96-2.14,3.66-10.79-.74-11.69.88l-2.02,3.65c-3.24-.95-7.15-.76-8.74,1.95-1.44,2.46-.66,5.71.49,9.68-1.46-.75-5.17-3.37-7.04-3.47-4.86-.26-7.81,5.38-8.64,9.63-5.66-.84-8-3.6-11.32-8.81-3.56,2.81-6.12,5.71-8.89,9.28l-7.02-6.77c-2.29,1.09-6.68,2.21-8.23.95-5.19-4.25-7.23-10.21-9.34-16.08-3.66-.49-7.62-1.56-9.69-3.98,2.42-.36,5.84-.63,7.07-1.69,2.15-1.86,1.09-6.28-.37-8.67-1.21-1.98-4.83-3.39-7.75-4.57l4.29-7.17c-3.79-7.63-6.95-17.94-3.15-23.59l-2.22-9.16c5.87,1.82,7.65,3.33,13.15,1.61l-5.37-4.85c-1.36-1.23-3.46-4.13-3.51-5.85-.07-2.33,1.4-5.15,2.95-7.19-3.56-3.23-3.81-8.11-.96-11.84-2.36-6.23-.85-12.55,5.52-15.13,1.65-1.34,3.06-5.16,1.57-7.05l-7.67-9.71c-.1-3.11,3.7-.55,7.36-2.41.91-.46-.05-3.17-.78-3.88l-4.96-4.94,5.11-2.9c2.82-1.6-3.17-6.16.62-12.7l4.6-7.92-7.9-7.25c-2.15-1.98-4.3-6.77-2.09-9.13l13.8-.91c-5.67-5.31-6.65-9.04-6.22-15.61.17-2.62.05-7.34,1.35-9.24l2.96-4.31c.79-1.14-.85-4.45-1.78-5.51l-6.78-7.65c3.85,1.03,6.53,2.28,9.08,1.17,2.21-.96,3.94-6.06,2.47-8.19l-5.29-7.66,3.2-9.95c1.53-4.76,4.95-12.33,1.21-16.37-1.6-1.73-6.85-3.77-4.82-6.77,1.23-1.81,5.25-4.03,7.63-5.54l-5.78-10.44c4.52-.09,8.25-.79,9.86-3.03-2.44-4.56-2.78-7.72-2.69-12.22l.23-11-3.17-5.21,6.17-11.9c.59-1.14,4.29-2.59,3.95-3.8l-1.44-5.19c-2.56-3.69-3.63-7.44-2.21-11.59-5.54-7.39,3.16-12.13,1.85-13.66l-2.12-2.45-2.06-2.86c-1.65-2.29,6.3-1.72,8.49-3.74,1.12-1.02,1.82-5.36,1.05-6.67l-6.31-10.68c-.42-.72-1.39-3.03-.8-3.54l3.35-2.89c1.37-1.18.07-4.3-2.61-6.61,3.46-2.89,7.13-1.3,9.82-4.16.65-.69-.18-3.09-.87-3.79l-6.22-6.36c2.91-2.71,7.93-6.66,6.08-10.6-2.32-4.93-7.06-8.48-7.96-14.33,4.37,3.07,9.29,3.11,12.77-.94l-3.93-5.59c-.6-.85-1.59-2.97-1.71-3.92-.15-1.15,2.32-2.01,4.68-2.94l-5.51-7.58c-1.29-5.21,3.54-7.53,6.87-10.43,2.18-1.89-1.02-5.98-3.92-6.57-2.01-.4-4.64-2.82-5.2-5.01l10.15-10.05-2.79-3.5c-.76-.96,3.83-5.63,2.72-8.52-1.24-3.23-5.84-4.2-6.16-7.79l9.77-5.18c-.4-8.05-11.54-11.18-5.41-15.69l6.01-4.41-5.72-9.95,7.99-4.6-4.1-9.08c-.2-.44.09-2.44.56-2.46l2.79-.11-5.37-17.03c-.95-3.02,4.68-2.29,8.47-4.38,1.75-.96-2.51-6.42.73-9.86,2.49-2.64-1.52-6.91-1.81-9.44l-1.85-16.03c2.34-1.44,5.6-1.77,9.69-2l-7.38-8.32,6.5-5.71-.44-10.17.29-6.89,10.6-.51,1.62-11.38,15.38,2.54,6.42-5.69,11.57,8.45,6.37.57c2.91,2.42,6.18,3.15,10.03,1.6,1.77-.71,6.46,1.88,6.21,3.8-1.2,9.52,5.06,14.45,6.08,14.06l4.7-1.8c9.91,4.15,4.29,10.29,6.33,13.47,1.1,1.71,4.63.77,6.46.68,7.32-.38,10.11,7.36,12.58,12.91,3.45,7.76,11.24,16.44,18.38,19.07s12.22,5.56,14.83,12.83l6.4,7.71c-3.11,6.19-.88,10.3,4.13,13.58l12.79,8.38c8.24,9.31,8.16,21.01,15.91,24.83,4.79,2.36,9.28,6.05,13.03,9.98,2.52-1.45,6.37-2.57,9-.08,3.32,3.13,7.34,7.38,7.25,12.12-.05,2.58-1.49,7.51,2.9,7.62,5.8.15,11.33,2.37,13.84,8.26l-4.57,2.75c2.73,4.12,6.47,7.25,11.45,9.66,5.45,17.24,19.77,15.76,23.48,20.92,2.34,3.27-1.6,8.78,1.67,12.12,2.63,2.69,8.07-3.26,10.73,2.69,2.45,5.48,5.25,10.4,9.19,14.82l7.21,3.38c5.89,2.77,4.95,8.08,4.84,12.86-.12,5.29,6.51,7.54,10.72,9.17,3.97,1.54,5.97,12.97,17.76,19.02-.1,4.13.61,8.29,3.44,10.91,3.28,3.03,7.04,3.59,11.65,2.12,1.89.81,5.34,3.89,5.57,5.96.65,5.98,2.38,12.43,8.07,15.06,6.41,2.96,10.5,8.24,10.73,15.67.06,1.97,4.31,4.33,6.14,3.95,2.29-.48,4.39-1.99,7.03-4.2,1.88,2.38,4.95,6.35,6.41,9.45.56,1.81-1.2,6.17-1.33,8.05-.25,3.59,4.36,4.3,7.42,4.99,4.88,1.1,10.49,5.57,12.53,10.04l.94,4.81c.2,1.02,3.5.4,4.52.9,4.62,2.28,8.23,6.53,11.3,10.79l-3.55,5.65,10.25,8.73c3.28,2.8,5.97,15.32,16.91,12.99l7.07,9c1.91,2.43,6.58,4.63,7.88,7.73,5.84,13.92,15.79,11.72,14.31,22.84,6.02,2.07,14.73,6.92,16.49,10.21,1.34,2.52-3.38,6.83-.17,9.23l10.7,8-5.67,5.73,10.7,5.79c-2.14.07-6.71.3-7.53,1.83-2.58,4.8,3.02,10.45-2.02,11.56l2.68,8.83-10.66,4.25,2.67,7.25c.23.63.7,2.17.19,2.43l-3.01,1.47c-4.69,2.29-8.81-.19-11.63-2.93l-1.54-1.49c-.36-.35-.82,1.55-.79,2.08l.39,8.22c-4.37,4.85-8.73-.04-12.32-.28l-12.69-.83-2.68,6.65c-4.89.25-10.41-1.58-14.46-4.54l-3.44-2.52c-.94-.69-3.16,1.58-3.95,2.47l-3.26,3.67-11.05-3.75c-.54-.18-2.86.14-2.79.68l.48,3.98c-3.16-2.29-6.2-2.2-9.46.53l-2.99,2.51c-.81.68-3.19-1.94-4.29-2.12l-11.65-1.92c-4.66,1.46-8.37,1.99-12.23.1.38,2.39.72,5.07.61,7.07-.09,1.59-3.88,3.47-5.46,2.96-4.3-1.37-6.96-3.95-9.94-7.26-3.22,4.1-6.73,3.63-10.48,1.23-2.09-1.34-7.08-.81-9.66-1.1-11.93-1.38-10.51,6.9-17.02,11.71,2.66,3.8,2.74,9.07-.42,13.65.69,6.35,4.71,11.21,9.49,15.54-2.82,5.21-1.38,9.99,3.04,12.95l7.57,13.93c-1.44.7-3.35,1.67-4.12,2.46-2.56,2.61,2.97,9.22,9.3,13.63,8.46,5.89-.26,13.44,4.14,18.24,4.12,4.5,8.7,1.6,10.77,6.79.52,1.31.3,5.67-1.15,5.82l-7.25.73,5.41,6.44.09,7.95,8.71,3.09c.13,4.42,1.02,7.97,3.35,10.78l5.73,6.91-12.41,3.06c-.86,1.14.26,5.27,1.66,6.11l9.63,5.85c2.11,1.77,2.58,8.06,1.72,10.83l-3.26,10.53-3.37,2.79c-1.65,1.36,3.26,4.57,4.28,9.67.3,1.51-1.58,4.73-3.44,5.22-5.1,1.34-14.33-8.42-13.01-4.27s5.93,7.23,4.8,11.88c-.36,1.46-2.88,3.53-4.19,3.48-1.49-.05-4.43-1.19-5.69-2.11l-3.42-2.48c-.9-.65-3.11,1.05-4.18,1.66l-7.19,4.08c-5.7,3.23-16.85,5.59-23.45,1.56-2.78,3.99-.83,9.33-3.61,12.63-.81.96-4.51,1.33-5.67.67l-9.19-5.2c-5.83,11.64-12.4,8.97-12.24,8.78l-1.86,2.31c-.81,1-3.88,2.19-5.17,2.13-2.25-.09-6.81-6.43-7.66-3.61-.23.78-.51,2.55-.47,3.39l.21,4.49c.14,2.99-13.35-2.48-20.21,1.07l-5.51,7.89c-7.01.4-12.58-2.72-18.66-5.1l-20.32-7.93.7-8.04-8.72-7.58,2.34-5.99c.55-1.4-2.29-3.98-3.62-5.28ZM248.2,727.51c-3.39,7.42,7.31,4.16,11.9,13.86.72,1.52-2.42,3.73-4.26,4.36-1.41,3.24-2.07,9.09-1.88,12.78,9.7,1.68,8.34,10.16,15.62,15.53.75-2.82,1.28-4.95,2.02-6.36.59-1.14,4.27-1.34,5.51-.8l6.73,2.95c1.36,1.61,1.57-.26.93-1.19l-1.25-4.12,9.46,4.59c7,3.4,5.56-3.59,12.62-7.95,3.78-2.34,6.61-2.51,10.84-1.84,9.63,1.52,17.81-13.59,26.78-8.72,2.24,1.22,3.9,2.02,5.59,2.54l.51-10.08c1.7-3.69,7.11-1.81,9.14.33l5.86,6.18c3.71-4.27,2.44-8.01-.61-12.88l8.34.96c1.92-2.87,5.22-6,8.58-4.34,1.86.92,5.06,2.12,6.84,1.75,1.56-.33,3.3-2.37,5.07-3.92,8.72-7.62-2.7-10.32,5.11-19.41l-4.36-14.76c-1.06-3.58-4.21-7.62-4.43-11.86l-.67-12.62c-.24-4.56-10.8-6.8-10.36-10.1.47-3.47,5.57-4.69,2.27-9.24-4.18-5.75-3.3-10.97-9.98-16.38,5-11.42-8.65-13.51-14.32-27.47l6.67-3.82-3.89-2.95c1.52-3.2,3-7.14,3.89-11.46l-11-6.2c-.72-.41-2.46-1.89-2.13-2.52l1.53-2.95c.31-.6.89-2.21,1.02-2.87s-1.48-1.42-2.17-1.93l-6.71-5.03c3.15-3.87,5.37-7.12,3.98-11.26l-11.97-5.42c1.39-4.65,6.69-5.5,7.39-9.28.62-3.37-10.98-5.05-14.28-16.61,3.08,1.91,5.81,3.03,8.96,2.09,7.56-2.25,11.46,1.35,13.59-5.95,4.76-2.67,12.03-.74,16.7,3.45l.83-5.23c.17-1.07,4.29-2.05,5.21-1.37l9.62,7.11c.74.54,2.83,1.48,3.31.84l1.68-2.25c.56-.75,2.6-1.55,3.95-2.2.14-2.47,3.08-7.63,5.46-7.04,4.64,2.37,8.52,3,12.92,4.76l4.36,1.74c1.55.62,4.56-4.6,7.9-4.09,2.69.41,2.95,5.03,8.3,7.07,1.4.54,5.26-1.26,5.17-2.75l-1.22-7.82c7.08,2.32,9.44-2.79,14.63.3,14.37,8.55,16.76-.89,20.08.05,1.59.45,4.05,1.92,5.72,2.98l2.38,1.52c.33.21.75-1.34.6-1.7l-.82-2.07c-.54-1.36-.14-5.03,1.24-5.46,3.51-1.1,5.74,5.45,17.18,2.28,1.88.97,6.12,3.96,8.21,3.58,5.34-.98,10.98-3.42,15.06-6.83,2.33-1.95,1.54-6.52.89-10.08l10.6-1.52c2.01-1.81,2.31-7.22.76-9.46l-7.06-10.19c-2.05-2.96-4.71-4.64-8.87-5.17-.35-11.1-5.7-21.86-15.01-27.75-5.25,6.21-13.4-5.18-17.65-14.43-7.04-15.36-17.25-13.03-18.22-14.18-2.14-2.54-.43-7.43-2.72-9.11-4.35-3.2-11.79,1.56-14.13-5.73l-3.56-11.08c-3.3-10.26-11.27-.17-17.03-9.92-1.64-2.77-1.28-5.88.38-9.47l-27.02-27.91-1.64-7.46c-9.13-5.47-18.08-11.1-23.98-19.88-2.14-3.18-4.18-5.47-7.43-7.82-3.73-2.7-3.11-8.09-3.21-12.66-6.84-7.65-18.5-5.9-19.94-12.55,1.59-4.11.94-6.76-2.19-9.27-4.23-3.4-7.91-6.1-14.03-4.93-1.91-2.24-3.51-5.44-4.63-8.61-7.67-2.69-14.92-7.35-19.16-14.02l3.45-2.39c.72-.5-.28-3.15-.88-3.82-15.03-16.74-31.69-16.92-23.29-27.83l-8.64-12.13c-5.64-7.92-24.38-6.21-22.2-19.16l-13.64-10,1.25-6.93c-6.1-9.65-14.76-7.06-17.8-9.07-1.82-1.2,3.41-6.34-2.26-12.07-4.41-4.47-8.98-7.42-14.3-10.79l-7.99-14.89-8.04-2.9c-6.17-2.23-7.55-9.01-11.69-13.5s-11.65-7.21-16.56-10.05c-.85-.76.46-4.51,1.6-4.4l4.28.41c.94.09,3.56-.36,3.1-1.09l-1.55-2.48c-5.35-8.58-17.44-3.79-16.67-7.97l.85-4.61c1.11-6-6.96-10.22-13.01-10.6-1.59-.1-4.66-1.99-5.27-3.32-1.3-2.82,3.1-7.44-.11-11.89s-10.56.53-15.88-3.83c-5-4.11-1.09-12.62-9.71-16.06-3.52-1.4-6.47-3.8-9.56-6.83-8.4,4.6-11.15-.41-15.9-1.08-1.79-.25-1.81,4.18,3.92,11.47.56.71,1.1,3.64.2,3.55-.67-.07-2.39-.53-2.97-.92l-7.65-5.1c-1.07-.71-4.94.36-4.89,1.55.2,5.32,6.23,8.3,1.75,13.68-2.76,3.32,4.71,6.9,3.37,12-.45,1.72-2.59,4.42-3.94,6.11.02,5.13-.97,8.73-4.21,12.79-4.3,5.38,7.27,12.46,4.06,16.45-2.53,3.14-12.24-2.02-10.85,2.13.8,2.37,4.51,4.21,6.8,5.37-.57,5.18-.89,9.47.4,14.5s-4.75,5.93-4.87,10.81c-.14,5.97,9.08,9.23,7.33,16.57-4.93-2.15-8.68-3.62-13.35-1.25,3.62,8.3,7.83,7.57,8.23,19.61l.1,2.95c.01.41-6.3-.75-8.43,3.62-.66,1.36.39,4.24,1.43,5.83l6.64,10.18c-2.67,1.07-5.54,2.42-7.28,3.91-1.37,1.17-2.02,5.92-.62,7.06l5.67,4.61c4.07,12.59-11.05,13.24-10.08,15.94l1.07,2.96,5.09,12.52c1.77,4.35-3.7,6.11-4.59,9.31-.64,2.28,7.8,7.24,8.22,14.58-3.62-3.71-7.93-6.11-11.97-2.99l.3,8.54c.13,3.63.37,6.4,2.65,9.48,3.62,4.88-.79,8.29,2.3,13.5-.14,2.42-3.72,6.04-5.76,7.53l-.43,2.6c-.07.43-2.43,1.18-2.36,1.61l1.72,11.64c.48,3.28.17,6.15,1.38,8.93l2.43,5.6c-2.36.44-4.79.88-4.57,1.9l.88,4.07c.3,1.38,1.5,4.23.9,5.37-1.74,3.27-6.01,4.04-7.14,7.12-.45,1.23.51,4.1,1.14,5.48l4.35,9.48c.45.97-.36,3.99-1.32,4.17l-3.63.68c-.65.12-2.8,1.16-2.32,1.6l2.09,1.91c1.12,1.02,2.75,2.35,3.14,3.39.99,2.64-4.85,8.05-3.86,9.55l3.23,4.89c-4.13,1.62-8.31,5.08-9.64,9.49,5.99,1.28,9.43,6.01,9.33,11.43-4.11.53-9.65,3.49-8.41,8.61.57,2.34,3.52,5.93,4.92,7.89l-2.98,3.22c-.6.65.47,2.85,1.01,3.7l4.41,6.95c-5.22,1.94-8.25,2.49-13.71,3.19,3.18,4.91,5.86,7.56,10.49,11.54l-7.98,10.24,4.72,5.12c.98,1.06,2.53,4.46,1.71,5.59s-2.76,1.9-5.23,3.09l1.98,4.07c1.45,2.98-3.95,6.89-8.23,7.67l7.37,11.89c5.07,8.18-8.51,9.05-4.01,13.99l5.06,5.57c-2.81-.12-6.21.15-7.53,1.55-3.79,4.01,1.21,9.96.04,10.8l-2.51,1.78,6.27,12.87c1.81,3.72-.22,7.47-4.04,8.73-3.3,1.09-7,5.62-4.27,8.4l2.98,3.04c.65.66-.87,2.76-1.69,3.71-1.74,2.04-.19,4.34.13,6.8.39,3-1.31,7.77.61,10.4,1.03,1.42,2.57,3.55,2.23,4.66-1.02,3.35-6.36,5.74-5.95,7.29l1.13,4.24c-4.78,2.87-2.36,6.21-1.99,10.58l1.05,12.27c.28,3.26-.12,5.68.93,8.83.63,1.89.77,5.65-.82,6.29s-3.86.76-6.33.76c-1,2.94,6.34,6.18,5.19,10.72-.69,2.73-1.86,4.42-4.32,8.52,8.89,6.52,19.7,2.54,22.62,14.31,3.61-2.72,3.91-4.77,4.63-9.73l8.21,3.87.95-13.46c.08-1.17,3.98-2.12,4.77-1.36l8.2,7.88c3.01-1.85,7.17-5.42,9.52-8l-1.11-7.52c6.93-3.99,13.16,4.43,21.8-6.24l5.77-7.12c6.96-8.59,11.6.54,17.53-7.43l5.21-7.01c.92-1.24,3.73-3.25,5.21-2.99,1.57.28,4.24,1.58,5.73,2.44l2.23,1.3c.33.19.99-1.08.78-1.39l-1.21-1.82c-1.29-1.93-1.98-5.15-1.06-6.97,1.05-2.08,4.2-4.34,6.43-3.7,1.63.46,3.46,2.37,6.21,4.81l2.47-7.21c1.54-1.63,5.78-2.82,8.93-3.7l-2.05-5.34c5.22-.72,9.96,2.92,10.99,1.21l2.18-3.64c.65-1.08,2.13-4.45,3.27-3.92l4.36,2.01,3.59,1.57c.97.43,5.42-6.68,1.49-14.02,3.54,1.36,7.27,4.22,8.94,7.23l5.79,10.47-2.36,5.62c-3.49,8.31,7.31,8.33,12.51,14.13l-6.66,9.61c5.98,4.69,7.53,9.29,8.15,15.9l5.32,5.89c1.89,2.09,2.92,5.73,1.76,8.11-1.37,2.82-3.71,3.95-7.49,4.78l9.1,6.4,4.9,10.96c-.77,5.27-.05,7.95,2.98,12.56l7.14,10.88c1.17,1.79-2.59,6.58-2.63,8.74-.09,4.23,4.91,8.17,8.15,10.56l-.23,4.76,4.49,5.72c.53.68,3.39,1.7,3.03,2.49l-1.85,4.05Z"/>
</svg>